<?xml version="1.0" encoding="utf-8"?>
<!-- Generator: Adobe Illustrator 27.7.0, SVG Export Plug-In . SVG Version: 6.00 Build 0)  -->
<svg version="1.1" id="Ebene_1" xmlns="http://www.w3.org/2000/svg" xmlns:xlink="http://www.w3.org/1999/xlink" x="0px" y="0px"
	 viewBox="0 0 1000 480" style="enable-background:new 0 0 1000 480;" xml:space="preserve">
<style type="text/css">
	.st0{fill:#FFFF00;}
</style>
<path d="M27.9,161.97L438,90.84l26,9v-15l308.08-55.28l195.75,94.68l5.23,43.19L841,318.84l-76,16l-48-15l-11,23L110.7,448.67
	l-41.95-55.82l-21.23-119.1l9.46-29.62l-18.28,1.3L27.9,161.97z"/>
<g>
	<polygon class="st0" points="71.92,222.25 58.15,270.77 78.78,386.52 110.51,408.01 692,300.84 703,277.84 761,293.84 814,278.84 
		943,131.84 763.85,44.33 474.43,95.4 474,117.84 434.53,102.44 40.76,171.93 49.84,223.82 	"/>
</g>
<g>
	<path d="M332.86,170.02l-33.11,155.78l-56.69,10l-17.02-82.14l-16.67,88.08l-56.69,10l-33.45-144.05l49.09-8.66l13.27,92.12
		l19.59-97.91l49.7-8.77l19.65,90.99l13.22-96.79L332.86,170.02z"/>
	<path d="M441.48,156.69c11.09,3.62,20.16,9.86,27.23,18.71c7.06,8.85,11.73,19.71,14.01,32.58c0.94,5.34,1.44,11.4,1.51,18.16
		c-0.04,13.42-2.73,25.79-8.07,37.11c-5.35,11.32-13.11,20.77-23.28,28.35c-10.17,7.59-22.3,12.62-36.41,15.1
		c-14.24,2.51-26.9,1.99-37.98-1.56c-11.08-3.56-20.11-9.72-27.09-18.52c-6.99-8.8-11.62-19.63-13.88-32.5
		c-1.18-6.71-1.73-12.96-1.62-18.78c0.04-13.42,2.76-25.75,8.19-37.02c5.43-11.27,13.26-20.69,23.5-28.29
		c10.24-7.59,22.41-12.64,36.52-15.12C417.93,152.48,430.39,153.07,441.48,156.69z M388.31,209.48c-4.66,6.4-6.98,14.47-6.96,24.21
		c-0.07,2.83,0.18,5.83,0.74,8.98c1.4,7.94,4.65,13.79,9.77,17.55c5.11,3.76,11.91,4.89,20.4,3.39c8.49-1.5,15.1-5.48,19.81-11.96
		c4.72-6.47,7.02-14.44,6.91-23.87c0.04-2.98-0.22-6.03-0.77-9.18c-1.42-8.08-4.69-13.97-9.79-17.66
		c-5.09-3.69-11.82-4.8-20.17-3.33C399.62,199.13,392.97,203.09,388.31,209.48z"/>
	<path d="M604.92,132.95c9.39,5.62,15.11,14.24,17.17,25.88c0.58,3.29,0.84,6.35,0.77,9.19c-0.04,10.17-2.79,19.59-8.26,28.25
		c-5.46,8.66-13.24,15.57-23.35,20.74l31.8,51.79l-50.12,8.84l-27.69-48.91l0.16,53.77l-45.6,8.04l-0.17-149.92l67.79-11.95
		C583.03,125.91,595.53,127.34,604.92,132.95z M545.23,197.38l18.08-3.19c8.9-1.57,13.31-6.58,13.23-15.04
		c0.01-0.71-0.07-1.61-0.26-2.71c-0.53-3.01-1.87-5.21-4.02-6.6c-2.15-1.39-5.08-1.75-8.77-1.1l-18.08,3.19L545.23,197.38z"/>
	<path d="M726.33,173.5l53.85,67.6l-54.84,9.67L683,193.2l0.03,65.02l-45.6,8.04l-0.17-149.92l45.6-8.04l0.15,63.3l42.57-70.83
		l54.43-9.6L726.33,173.5z"/>
</g>
</svg>
