<?xml version="1.0" encoding="utf-8"?>
<svg viewBox="-56.548 -103.7795 1363.1857 1874.3453" xmlns="http://www.w3.org/2000/svg">
    <path
        d="m 7447.93,11178.4 -3.79,-494 -534.53,-94.2 -9.45,-1492.7 -631.21,-111.3 9.44,1492.7 -528.84,-93.3 3.79,494 1694.59,298.8"
        style="fill:#000000;fill-opacity:1;fill-rule:nonzero;stroke:none" id="path-1"
        transform="matrix(0.13333333094914135, 0, 0, -0.13333333094914135, -688.5478189873998, 2370.8856459073804)" />
    <path
        d="m 8317.02,10838.4 -0.47,-246.8 625.52,110.3 -5.26,-468.9 -625.52,-110.3 -0.4,-280.3 710.82,125.3 -3.31,-496.7 -1342.04,-236.6 13.25,1986.6 1342.03,236.6 -3.8,-493.9 -710.82,-125.3"
        style="fill:#000000;fill-opacity:1;fill-rule:nonzero;stroke:none" id="path-2"
        transform="matrix(0.13333333094914135, 0, 0, -0.13333333094914135, -688.5478189873998, 2370.8856459073804)" />
    <path
        d="m 10621.9,10053.7 -671.01,-118.4 -102.26,-317.9 -662.48,-116.8 749.65,2116.5 727.9,128.3 720.3,-1857.2 -665.3,-117.3 z m -151.1,441.4 -176.9,520.9 -187.1,-585.1 z"
        style="fill:#000000;fill-opacity:1;fill-rule:nonzero;stroke:none" id="path-3"
        transform="matrix(0.13333333094914135, 0, 0, -0.13333333094914135, -688.5478189873998, 2370.8856459073804)" />
    <path
        d="m 14030.1,12339 -13.2,-1986.6 -628.4,-110.8 6.6,993.3 -316.5,-1047.9 -540.2,-95.3 -302.9,935.9 -7,-990.5 -631.3,-111.3 13.3,1986.6 773.4,136.3 436.3,-1111.3 439.4,1265.7 770.5,135.9"
        style="fill:#000000;fill-opacity:1;fill-rule:nonzero;stroke:none" id="path-4"
        transform="matrix(0.13333333094914135, 0, 0, -0.13333333094914135, -688.5478189873998, 2370.8856459073804)" />
    <path
        d="m 7860.58,7837.9 c -80.34,-116.7 -186.13,-203.5 -317.36,-260.4 132.55,-8 240.75,-49.2 324.53,-123.6 83.73,-74.5 135.75,-169.1 155.96,-283.6 6.6,-37.5 9.73,-76.7 9.4,-117.7 -3.27,-224.9 -80.11,-411.5 -230.51,-559.8 -150.46,-148.3 -366.37,-247.3 -647.7,-296.9 l -1361.54,-240 17.09,2564.1 1324.84,233.6 c 237.29,41.8 429.05,31 575.21,-32.4 146.12,-63.5 234.09,-179.4 263.77,-347.8 4.95,-28.1 7.87,-73.4 8.83,-135.9 -1.37,-149.8 -42.21,-283 -122.52,-399.6 z m -663.31,-766.3 c -15.67,88.9 -85.9,122.3 -210.67,100.3 l -370.67,-65.4 -4.19,-362.4 370.66,65.3 c 75.81,13.4 131.59,37.1 167.21,71.1 35.63,34 52.96,82.3 52.03,144.8 0.35,12.1 -1.06,27.5 -4.37,46.3 z m -47.65,914 c -15.25,86.5 -86.54,118.6 -213.73,96.2 l -315.6,-55.7 -0.54,-361.8 315.62,55.7 c 73.4,12.9 127.81,37 163.23,72.1 35.41,35.2 52.85,82.9 52.34,143.1 0.76,24.2 0.34,41.1 -1.32,50.4"
        style="fill:#000000;fill-opacity:1;fill-rule:nonzero;stroke:none" id="path-5"
        transform="matrix(0.13333333094914135, 0, 0, -0.13333333094914135, -688.5478189873998, 2370.8856459073804)" />
    <path d="m 9212.53,7166.5 785.36,138.5 -2.5,-608.2 -1600.09,-282.1 17.09,2564.1 814.73,143.7 -14.59,-1956"
        style="fill:#000000;fill-opacity:1;fill-rule:nonzero;stroke:none" id="path-6"
        transform="matrix(0.13333333094914135, 0, 0, -0.13333333094914135, -688.5478189873998, 2370.8856459073804)" />
    <path
        d="m 11161.2,9463.5 -10.1,-1445.1 c -0.8,-38.8 2.4,-78 9.4,-117.7 14,-79.6 47.1,-138.3 99.1,-176.1 52.1,-37.8 125.9,-48.4 221.3,-31.5 117.4,20.7 204.5,70.4 261.3,149.1 56.7,78.8 86,177.4 87.8,295.9 l 10.1,1445.1 811,143 -10,-1445.1 c -2.4,-244 -56.2,-461.5 -161.2,-652.4 -105.1,-191 -246.9,-345.6 -425.3,-463.9 -178.4,-118.3 -377.7,-196.8 -597.9,-235.7 -291.2,-51.3 -534.6,-19.5 -730.2,95.6 -195.6,115 -317.3,308.1 -365.1,579.5 -15.7,88.8 -22.8,179.2 -21.4,271.2 l 10.1,1445.1 811.1,143"
        style="fill:#000000;fill-opacity:1;fill-rule:nonzero;stroke:none" id="path-7"
        transform="matrix(0.13333333094914135, 0, 0, -0.13333333094914135, -688.5478189873998, 2370.8856459073804)" />
    <path
        d="m 13901.4,9310 -0.7,-318.5 807.4,142.4 -6.8,-605.3 -807.3,-142.4 -0.6,-361.8 917.5,161.8 -4.3,-641.1 -1732.2,-305.4 17.1,2564.2 1732.2,305.4 -4.9,-637.5 -917.4,-161.8"
        style="fill:#000000;fill-opacity:1;fill-rule:nonzero;stroke:none" id="path-8"
        transform="matrix(0.13333333094914135, 0, 0, -0.13333333094914135, -688.5478189873998, 2370.8856459073804)" />
    <path
        d="m 14506.7,13951.9 c 0,0 56.3,2696 -2051,3729.9 -26.2,273.9 -313.2,578.3 -313.2,578.3 0,0 -3054.22,716.6 -4829.84,-1582.6 -779.65,-1009.5 -1274.54,-3060.6 -1274.54,-3060.6 0,0 -1290.7,-661.7 -1080.7,-1266 223.89,-644.2 2402.32,-964.1 3025.24,-1103.5 1552.55,-347.3 3678.14,1329.9 5582.44,1556.7 1353.4,161.3 1403.5,749.5 941.6,1147.8"
        style="fill:#636bff;fill-opacity:1;fill-rule:nonzero;stroke:none" id="path-9"
        transform="matrix(0.13333333094914135, 0, 0, -0.13333333094914135, -688.5478189873998, 2370.8856459073804)" />
    <path
        d="m 8704.78,11018.9 c -263.48,-25.1 -518.76,-15.9 -764.48,39.1 -89.49,20 -215.63,44.6 -361.73,73 -1303.96,253.9 -2594.61,552.3 -2804.48,1156.2 -231.42,665.8 779.66,1285.2 1096.69,1460.3 104.37,406.5 574.61,2124.6 1288.27,3048.6 758.99,982.8 1870.1,1580.3 3213.25,1727.8 1007.3,110.5 1782.1,-67.3 1814.6,-74.9 l 56.8,-13.3 40,-42.5 c 30.2,-32 269.4,-292.4 345,-581.7 865.8,-455.6 1496.7,-1257.3 1828.1,-2324.8 205.5,-661.9 238.7,-1234.8 243.5,-1449.5 224.6,-223.1 311.3,-482.2 238.3,-721.3 -78.7,-257.3 -376.8,-588.5 -1350.5,-704.5 -795.7,-94.8 -1650.4,-459.7 -2476.8,-812.6 -847.2,-361.7 -1659.75,-708.7 -2406.52,-779.9 z M 10491.9,18146 c -29.8,-2.9 -59.6,-5.9 -89.8,-9.3 -1247.65,-140 -2235.39,-670.8 -2935.86,-1577.8 -744.95,-964.6 -1234.6,-2967.5 -1239.46,-2987.6 l -20.9,-86.5 -79.22,-40.6 c -3,-1.6 -312.2,-161.5 -589.32,-387.7 -180.3,-147.1 -471.58,-426.2 -396.6,-641.9 27.72,-79.8 176.22,-291.8 954.06,-536.5 523.13,-164.6 1121.24,-281 1557.96,-366.1 148.9,-29 277.54,-54 372.26,-75.2 820.26,-183.5 1846.85,254.9 2933.78,719 851.7,363.6 1732.3,739.7 2583.4,841.1 859.9,102.4 1002,356.9 1025.1,432.4 32.4,106.1 -37.6,246.5 -187.3,375.6 l -69.2,59.7 1.9,91.3 c 0.6,35.6 22.2,2587.7 -1942.5,3551.6 l -97.4,47.8 -10.3,108.1 c -12.5,130.5 -130.5,309.6 -222.5,419.7 -185.9,35.6 -796.9,134.5 -1548.1,62.9"
        style="fill:#0517b8;fill-opacity:1;fill-rule:nonzero;stroke:none" id="path-10"
        transform="matrix(0.13333333094914135, 0, 0, -0.13333333094914135, -688.5478189873998, 2370.8856459073804)" />
    <path
        d="m 8398.89,15441.1 -422.18,188.8 67.88,172.4 c 9.84,25.1 248.69,620.9 873.03,1246.4 573.47,574.5 1596.98,1284.6 3210.48,1404.9 l 28.9,-387.1 c -1151.2,-85.9 -2116.9,-489.6 -2870.58,-1200.6 718.78,517.9 1780.58,1025.4 3171.38,1009.9 l -4.3,-388.1 C 9905.27,17516 8505,15590.1 8491.16,15570.7 l -92.27,-129.6"
        style="fill:#0517b8;fill-opacity:1;fill-rule:nonzero;stroke:none" id="path-11"
        transform="matrix(0.13333333094914135, 0, 0, -0.13333333094914135, -688.5478189873998, 2370.8856459073804)" />
    <path
        d="m 10223.4,12575.3 c -723.5,-69 -1535.23,-74.4 -2347.51,41.4 -1506.32,214.7 -1977.13,861 -1996.43,888.4 l 317.33,223.5 -158.67,-111.7 157.35,113.6 c 4.01,-5.4 414.34,-541.3 1735.17,-729.5 1788.24,-254.9 3564.86,98.1 4322.76,397.6 l 142.6,-361 c -449.1,-177.5 -1236.9,-373.1 -2172.6,-462.3"
        style="fill:#0517b8;fill-opacity:1;fill-rule:nonzero;stroke:none" id="path-12"
        transform="matrix(0.13333333094914135, 0, 0, -0.13333333094914135, -688.5478189873998, 2370.8856459073804)" />
    <path
        d="m 13844.8,13498.3 -130.2,365.6 c 483.4,172.2 588.6,467.5 592.8,480 l 370.6,-115.2 c -5.9,-19.9 -154.4,-488.7 -833.2,-730.4"
        style="fill:#0517b8;fill-opacity:1;fill-rule:nonzero;stroke:none" id="path-13"
        transform="matrix(0.13333333094914135, 0, 0, -0.13333333094914135, -688.5478189873998, 2370.8856459073804)" />
    <path
        d="m 5868.62,5450.8 329.3,-948.4 395.69,69.8 326.98,1064.1 -325.38,-57.4 -198.71,-727.3 -202.5,656.6 z m 1797.62,-689.5 322.63,56.9 -356.87,943.6 -352.96,-62.3 -355.93,-1069.2 321.24,56.6 48.44,160.7 325.38,57.3 z m -299.61,336.7 88.6,295.7 87.87,-264.6 z m 258.21,1083.3 -357.93,-219.5 0.14,-210.4 357.67,196.7 z m 885.08,-254.8 c -98.37,-17.3 -183.82,-54 -256.41,-109.9 -72.59,-55.9 -128.44,-126.2 -167.55,-210.8 -39.1,-84.6 -58.41,-176.6 -57.94,-276 -0.12,-37 3.08,-73.9 9.56,-110.7 13.61,-77.2 41.42,-142.2 83.42,-194.9 42.01,-52.8 96.17,-89.9 162.51,-111.4 66.34,-21.5 142.24,-24.7 227.73,-9.6 126.84,22.4 232.12,76.9 315.86,163.7 83.72,86.8 135.99,192.2 156.77,316.3 l -322.62,-56.9 c -14.56,-35.8 -35.41,-65.3 -62.58,-88.5 -27.17,-23.3 -58.23,-38 -93.15,-44.2 -43.22,-7.6 -78.95,0.3 -107.25,23.7 -28.3,23.5 -46.67,59.1 -55.1,106.9 -3.72,21.1 -5.37,41.2 -4.93,60.3 0.43,67.3 15.39,123.5 44.91,168.5 29.49,45 69.97,72.1 121.46,81.1 34.92,6.2 66.14,2.5 93.67,-11.2 27.5,-13.6 48.25,-35.8 62.19,-66.5 l 322.62,56.9 c -12.71,77.4 -40.24,142.2 -82.61,194.4 -42.4,52.3 -96.94,88.8 -163.65,109.8 -66.72,20.9 -142.36,23.9 -226.91,9 z m 1497.68,-246.3 c -0.6,35.9 -3.6,69.1 -8.97,99.4 -13.45,76.3 -42.33,140.6 -86.62,193 -44.31,52.3 -101.51,89.2 -171.6,110.5 -70.09,21.2 -150.18,23.9 -240.25,8.1 l -406.73,-71.8 1.16,-1006.2 406.72,71.7 c 102.03,18 191.33,55.7 267.89,113.3 76.57,57.6 135.39,128.4 176.51,212.4 41.09,84 61.69,173.9 61.89,269.6 z m -535.12,-318.9 -73.07,-12.9 0.39,449.3 73.07,12.9 c 59.74,10.5 109.13,4.5 148.17,-18 39.02,-22.5 63.25,-60.4 72.65,-113.7 1.94,-11 3.17,-28.8 3.72,-53.4 0.36,-71.9 -19.8,-130.9 -60.49,-177 -40.7,-46 -95.5,-75.1 -164.44,-87.2 z m 641.22,838 0.5,-567.1 c -0.3,-36.1 2.6,-71.6 8.8,-106.5 18.8,-106.6 65.2,-182.8 139.1,-228.5 73.9,-45.7 165.6,-58.9 275,-39.6 82.7,14.5 157.4,44.8 224.2,90.7 66.8,45.9 119.7,106.1 158.6,180.8 39,74.6 58.6,159.8 58.7,255.5 l -0.4,567.2 -304.7,-53.8 0.4,-567.1 c -0.3,-46.5 -11,-85.1 -32.1,-115.8 -21.2,-30.8 -53.8,-50 -97.9,-57.8 -35.8,-6.3 -63.6,-2 -83.3,13 -19.7,15 -32.3,38.2 -37.8,69.4 -2.8,15.6 -4.1,31 -3.9,46.2 l -0.5,567.2 z m 1953.6,344.5 -365.3,-64.4 -285.8,-475.4 -1,424.8 -306.1,-53.9 1.2,-1006.3 306.1,53.9 -0.2,436.4 284.2,-386.3 368.1,64.9 -361.5,453.8 z m 758.1,-872.8 322.6,56.9 -356.8,943.6 -353,-62.3 -355.9,-1069.2 321.2,56.6 48.5,160.7 325.3,57.3 z m -299.6,336.7 88.6,295.7 87.9,-264.6 z"
        style="fill:#636bff;fill-opacity:1;fill-rule:nonzero;stroke:none" id="path44"
        transform="matrix(0.13333333094914135, 0, 0, -0.13333333094914135, -688.5478189873998, 2370.8856459073804)" />
</svg>