<?xml version="1.0" encoding="utf-8"?>
<svg viewBox="212.1205 -451.0554 1419.7591 1818.1109" xmlns="http://www.w3.org/2000/svg">
    <g id="g8"
        transform="matrix(1.3333330154418945, 0, 0, -1.3333330154418945, -411.33349609374955, 1922.276123046875)">
        <g id="g10" transform="scale(0.1)">
            <path
                d="m 7408.17,10528.4 -3.79,-494 -534.53,-94.2 -9.46,-1492.7 -631.21,-111.3 9.46,1492.7 -528.85,-93.3 3.78,494 1694.6,298.8"
                style="fill:#000000;fill-opacity:1;fill-rule:nonzero;stroke:none" id="path12" />
            <path
                d="m 8277.26,10188.4 -0.47,-246.8 625.52,110.3 -5.26,-468.9 -625.52,-110.3 -0.41,-280.4 710.82,125.4 -3.3,-496.7 -1342.03,-236.6 13.23,1986.6 1342.03,236.6 -3.79,-493.9 -710.82,-125.3"
                style="fill:#000000;fill-opacity:1;fill-rule:nonzero;stroke:none" id="path14" />
            <path
                d="m 10582.1,9403.7 -670.98,-118.4 -102.25,-317.9 -662.48,-116.8 749.64,2116.4 727.87,128.4 720.4,-1857.2 -665.4,-117.4 z m -151.1,441.3 -176.9,521 -187,-585.1 z"
                style="fill:#000000;fill-opacity:1;fill-rule:nonzero;stroke:none" id="path16" />
            <path
                d="m 13990.4,11689 -13.3,-1986.6 -628.4,-110.8 6.7,993.3 -316.6,-1047.9 -540.2,-95.3 -302.8,935.9 -7.1,-990.5 -631.2,-111.3 13.2,1986.5 773.4,136.4 436.4,-1111.4 439.3,1265.8 770.6,135.9"
                style="fill:#000000;fill-opacity:1;fill-rule:nonzero;stroke:none" id="path18" />
            <path
                d="m 7320.87,8080.6 c 131.52,-36.6 237.13,-100.7 316.8,-192.2 79.63,-91.5 133.83,-202 162.52,-331.4 l -665.33,-117.4 c -23.77,35.1 -58.37,59.3 -103.71,72.8 -45.39,13.5 -100.33,14.6 -164.74,3.2 -121.33,-21.4 -215.63,-76.8 -282.92,-166.2 -67.32,-89.4 -101.8,-201.5 -103.41,-336.3 -0.55,-52.4 2.4,-96.7 8.79,-133 18.86,-106.9 64.19,-181.1 136.01,-222.6 71.82,-41.6 173.12,-50.8 303.91,-27.7 145.94,25.7 263.99,104.4 354.13,236.2 l -503.26,-88.7 4.37,440.7 1026.42,181 -4.49,-622.9 c -164.25,-387.7 -480.46,-622.9 -948.62,-705.4 -180.1,-31.8 -340.81,-26.5 -482.13,15.9 -141.36,42.3 -256.6,116.8 -345.77,223.5 -89.16,106.6 -147.65,238.8 -175.44,396.4 -13.11,74.3 -19.27,148 -18.44,221 1.52,190.8 44.05,367.9 127.68,531.2 83.57,163.2 203.08,300.1 358.52,410.7 155.41,110.5 336.44,184 543.07,220.5 172.46,30.4 324.5,27.3 456.04,-9.3"
                style="fill:#000000;fill-opacity:1;fill-rule:nonzero;stroke:none" id="path20" />
            <path
                d="m 9569.82,8402.9 c 129.21,-73.5 207.44,-187.2 234.59,-341.2 7.66,-43.5 10.89,-84 9.71,-121.6 -1.65,-134.8 -40.65,-259.9 -117.07,-375.2 -76.41,-115.3 -184.71,-207.7 -324.9,-277.3 l 434.12,-682.9 -693.76,-122.4 -377.63,645.3 -3.37,-712.4 -631.2,-111.3 13.23,1986.5 938.29,165.5 c 216.08,38.1 388.73,20.4 517.99,-53 z m -831.95,-860 250.21,44.2 c 123.19,21.7 184.69,88.6 184.49,200.6 0.27,9.4 -0.83,21.3 -3.39,35.9 -7.02,39.8 -25.33,68.8 -54.92,87 -29.58,18.1 -69.97,22.7 -121.14,13.7 l -250.22,-44.2 -5.03,-337.2"
                style="fill:#000000;fill-opacity:1;fill-rule:nonzero;stroke:none" id="path22" />
            <path
                d="m 10717,8256.3 -0.4,-246.8 625.5,110.3 -5.3,-468.9 -625.5,-110.3 -0.4,-280.3 710.8,125.3 -3.3,-496.7 -1342,-236.6 13.2,1986.6 1342.1,236.6 -3.8,-493.9 -710.9,-125.3"
                style="fill:#000000;fill-opacity:1;fill-rule:nonzero;stroke:none" id="path24" />
            <path
                d="m 12369,8547.5 -0.5,-246.7 625.5,110.3 -5.2,-468.9 -625.6,-110.3 -0.4,-280.4 710.9,125.4 -3.3,-496.7 -1342.1,-236.6 13.3,1986.6 1342,236.6 -3.8,-493.9 -710.8,-125.4"
                style="fill:#000000;fill-opacity:1;fill-rule:nonzero;stroke:none" id="path26" />
            <path
                d="m 15310.9,7575.3 -631.2,-111.3 -662.6,880.9 -5.6,-998.7 -631.2,-111.3 13.2,1986.6 631.2,111.3 662.6,-897.8 5.6,1015.6 631.2,111.3 -13.2,-1986.6"
                style="fill:#000000;fill-opacity:1;fill-rule:nonzero;stroke:none" id="path28" />
            <path
                d="m 14442.6,13191.9 c 0,0 56.3,2696 -2051,3729.9 -26.2,273.9 -313.2,578.3 -313.2,578.3 0,0 -3054.22,716.6 -4829.84,-1582.6 -779.65,-1009.5 -1274.53,-3060.6 -1274.53,-3060.6 0,0 -1290.71,-661.7 -1080.7,-1266 223.88,-644.2 2402.31,-964.1 3025.23,-1103.5 1552.55,-347.3 3678.14,1329.9 5582.44,1556.7 1353.4,161.3 1403.5,749.5 941.6,1147.8"
                style="fill:#00db8f;fill-opacity:1;fill-rule:nonzero;stroke:none" id="path30" />
            <path
                d="m 8640.68,10258.9 c -263.47,-25.1 -518.75,-15.9 -764.48,39.1 -89.49,20 -215.63,44.6 -361.72,73 -1303.97,253.9 -2594.62,552.3 -2804.48,1156.2 -231.43,665.8 779.66,1285.2 1096.68,1460.3 104.37,406.5 574.62,2124.6 1288.27,3048.6 759,982.8 1870.1,1580.3 3213.25,1727.8 1007.3,110.5 1782.1,-67.3 1814.6,-74.9 l 56.8,-13.3 40,-42.5 c 30.2,-32 269.5,-292.4 345,-581.7 865.8,-455.6 1496.7,-1257.3 1828.1,-2324.8 205.5,-661.9 238.7,-1234.8 243.5,-1449.5 224.6,-223.1 311.3,-482.2 238.3,-721.3 -78.7,-257.3 -376.8,-588.5 -1350.5,-704.5 -795.7,-94.8 -1650.4,-459.7 -2476.8,-812.6 -847.2,-361.7 -1659.74,-708.7 -2406.52,-779.9 z M 10427.8,17386 c -29.8,-2.9 -59.6,-5.9 -89.8,-9.3 -1247.65,-140 -2235.38,-670.8 -2935.86,-1577.8 -744.95,-964.6 -1234.6,-2967.5 -1239.45,-2987.6 l -20.9,-86.5 -79.22,-40.6 c -3.01,-1.6 -312.21,-161.5 -589.33,-387.7 -180.29,-147.1 -471.57,-426.2 -396.6,-641.9 27.73,-79.8 176.22,-291.8 954.07,-536.5 523.12,-164.6 1121.24,-281.1 1557.95,-366.1 148.9,-29 277.54,-54 372.26,-75.2 820.26,-183.5 1846.85,254.9 2933.78,719 851.7,363.6 1732.3,739.7 2583.4,841.1 859.9,102.4 1002,356.9 1025.1,432.4 32.4,106.1 -37.6,246.5 -187.3,375.6 l -69.2,59.7 1.9,91.3 c 0.6,35.6 22.2,2587.7 -1942.5,3551.6 l -97.4,47.8 -10.3,108.1 c -12.5,130.5 -130.5,309.6 -222.5,419.7 -185.9,35.6 -796.9,134.5 -1548.1,62.9"
                style="fill:#007845;fill-opacity:1;fill-rule:nonzero;stroke:none" id="path32" />
            <path
                d="m 8334.79,14681.1 -422.18,188.8 67.88,172.4 c 9.84,25.1 248.7,620.9 873.03,1246.4 573.47,574.5 1596.98,1284.6 3210.48,1404.9 l 28.9,-387.1 c -1151.2,-85.9 -2116.94,-489.6 -2870.58,-1200.6 718.82,517.9 1780.58,1025.4 3171.38,1009.9 l -4.3,-388.1 c -2548.22,28.3 -3948.49,-1897.6 -3962.33,-1917 l -92.28,-129.6"
                style="fill:#007845;fill-opacity:1;fill-rule:nonzero;stroke:none" id="path34" />
            <path
                d="m 10159.3,11815.3 c -723.49,-69 -1535.23,-74.4 -2347.51,41.4 -1506.31,214.7 -1977.12,861 -1996.43,888.4 l 317.33,223.5 -158.66,-111.7 157.34,113.6 c 4.01,-5.4 414.34,-541.3 1735.17,-729.5 1788.24,-254.9 3564.86,98.1 4322.76,397.6 l 142.6,-361 c -449.1,-177.5 -1236.9,-373.1 -2172.6,-462.3"
                style="fill:#007845;fill-opacity:1;fill-rule:nonzero;stroke:none" id="path36" />
            <path
                d="m 13780.7,12738.3 -130.2,365.6 c 483.5,172.2 588.6,467.5 592.8,480 l 370.6,-115.2 c -5.9,-19.9 -154.4,-488.7 -833.2,-730.4"
                style="fill:#007845;fill-opacity:1;fill-rule:nonzero;stroke:none" id="path38" />
            <g id="g40" transform="scale(10)">
                <text transform="matrix(0.984808,0.173648,0.173648,-0.984808,595.526,445.96)"
                    style="font-style: italic; font-variant: normal; font-weight: 900; font-size: 140px; font-family: Poppins; writing-mode: lr-tb; fill: rgb(0, 219, 143); fill-opacity: 1; fill-rule: nonzero; stroke: none; white-space: pre;"
                    id="text44"></text>
            </g>
            <path
                d="m 5868.62,5450.8 329.3,-948.4 395.69,69.8 326.98,1064.1 -325.38,-57.4 -198.71,-727.3 -202.5,656.6 z m 1797.62,-689.5 322.63,56.9 -356.87,943.6 -352.96,-62.3 -355.93,-1069.2 321.24,56.6 48.44,160.7 325.38,57.3 z m -299.61,336.7 88.6,295.7 87.87,-264.6 z m 258.21,1083.3 -357.93,-219.5 0.14,-210.4 357.67,196.7 z m 885.08,-254.8 c -98.37,-17.3 -183.82,-54 -256.41,-109.9 -72.59,-55.9 -128.44,-126.2 -167.55,-210.8 -39.1,-84.6 -58.41,-176.6 -57.94,-276 -0.12,-37 3.08,-73.9 9.56,-110.7 13.61,-77.2 41.42,-142.2 83.42,-194.9 42.01,-52.8 96.17,-89.9 162.51,-111.4 66.34,-21.5 142.24,-24.7 227.73,-9.6 126.84,22.4 232.12,76.9 315.86,163.7 83.72,86.8 135.99,192.2 156.77,316.3 l -322.62,-56.9 c -14.56,-35.8 -35.41,-65.3 -62.58,-88.5 -27.17,-23.3 -58.23,-38 -93.15,-44.2 -43.22,-7.6 -78.95,0.3 -107.25,23.7 -28.3,23.5 -46.67,59.1 -55.1,106.9 -3.72,21.1 -5.37,41.2 -4.93,60.3 0.43,67.3 15.39,123.5 44.91,168.5 29.49,45 69.97,72.1 121.46,81.1 34.92,6.2 66.14,2.5 93.67,-11.2 27.5,-13.6 48.25,-35.8 62.19,-66.5 l 322.62,56.9 c -12.71,77.4 -40.24,142.2 -82.61,194.4 -42.4,52.3 -96.94,88.8 -163.65,109.8 -66.72,20.9 -142.36,23.9 -226.91,9 z m 1497.68,-246.3 c -0.6,35.9 -3.6,69.1 -8.97,99.4 -13.45,76.3 -42.33,140.6 -86.62,193 -44.31,52.3 -101.51,89.2 -171.6,110.5 -70.09,21.2 -150.18,23.9 -240.25,8.1 l -406.73,-71.8 1.16,-1006.2 406.72,71.7 c 102.03,18 191.33,55.7 267.89,113.3 76.57,57.6 135.39,128.4 176.51,212.4 41.09,84 61.69,173.9 61.89,269.6 z m -535.12,-318.9 -73.07,-12.9 0.39,449.3 73.07,12.9 c 59.74,10.5 109.13,4.5 148.17,-18 39.02,-22.5 63.25,-60.4 72.65,-113.7 1.94,-11 3.17,-28.8 3.72,-53.4 0.36,-71.9 -19.8,-130.9 -60.49,-177 -40.7,-46 -95.5,-75.1 -164.44,-87.2 z m 641.22,838 0.5,-567.1 c -0.3,-36.1 2.6,-71.6 8.8,-106.5 18.8,-106.6 65.2,-182.8 139.1,-228.5 73.9,-45.7 165.6,-58.9 275,-39.6 82.7,14.5 157.4,44.8 224.2,90.7 66.8,45.9 119.7,106.1 158.6,180.8 39,74.6 58.6,159.8 58.7,255.5 l -0.4,567.2 -304.7,-53.8 0.4,-567.1 c -0.3,-46.5 -11,-85.1 -32.1,-115.8 -21.2,-30.8 -53.8,-50 -97.9,-57.8 -35.8,-6.3 -63.6,-2 -83.3,13 -19.7,15 -32.3,38.2 -37.8,69.4 -2.8,15.6 -4.1,31 -3.9,46.2 l -0.5,567.2 z m 1953.6,344.5 -365.3,-64.4 -285.8,-475.4 -1,424.8 -306.1,-53.9 1.2,-1006.3 306.1,53.9 -0.2,436.4 284.2,-386.3 368.1,64.9 -361.5,453.8 z m 758.1,-872.8 322.6,56.9 -356.8,943.6 -353,-62.3 -355.9,-1069.2 321.2,56.6 48.5,160.7 325.3,57.3 z m -299.6,336.7 88.6,295.7 87.9,-264.6 z"
                style="fill:#00db8f;fill-opacity:1;fill-rule:nonzero;stroke:none" id="path46" />
        </g>
    </g>
</svg>