<?xml version="1.0" encoding="utf-8"?>
<svg viewBox="124.9923 48.9689 1672.3754 1775.3714" xmlns="http://www.w3.org/2000/svg">
    <path
        d="m 7594.37,10660 -3.79,-493.9 -534.54,-94.3 -9.45,-1492.6 -631.21,-111.3 9.45,1492.6 -528.85,-93.2 3.79,493.9 1694.6,298.8"
        style="fill:#000000;fill-opacity:1;fill-rule:nonzero;stroke:none" id="path12"
        transform="matrix(0.13333330353101047, 0, 0, -0.13333330353101047, -661.1381835937498, 2449.860107421875)" />
    <path
        d="m 8463.46,10320 -0.47,-246.7 625.52,110.3 -5.26,-469 -625.52,-110.3 -0.41,-280.3 710.82,125.3 -3.31,-496.6 -1342.02,-236.7 13.23,1986.6 1342.03,236.7 -3.79,-494 -710.82,-125.3"
        style="fill:#000000;fill-opacity:1;fill-rule:nonzero;stroke:none" id="path14"
        transform="matrix(0.13333330353101047, 0, 0, -0.13333330353101047, -661.1381835937498, 2449.860107421875)" />
    <path
        d="m 10768.3,9535.3 -671,-118.3 -102.23,-317.9 -662.48,-116.8 749.61,2116.4 727.9,128.3 720.3,-1857.2 -665.3,-117.3 z m -151.1,441.4 -176.9,520.9 -187,-585.1 z"
        style="fill:#000000;fill-opacity:1;fill-rule:nonzero;stroke:none" id="path16"
        transform="matrix(0.13333330353101047, 0, 0, -0.13333330353101047, -661.1381835937498, 2449.860107421875)" />
    <path
        d="m 14176.5,11820.6 -13.2,-1986.5 -628.4,-110.8 6.7,993.2 -316.6,-1047.9 -540.2,-95.3 -302.8,936 -7.1,-990.6 -631.2,-111.3 13.2,1986.6 773.4,136.3 436.4,-1111.3 439.3,1265.8 770.5,135.8"
        style="fill:#000000;fill-opacity:1;fill-rule:nonzero;stroke:none" id="path18"
        transform="matrix(0.13333330353101047, 0, 0, -0.13333330353101047, -661.1381835937498, 2449.860107421875)" />
    <path
        d="m 7479.83,8200.4 c 152.88,-46.8 277.73,-128.5 374.5,-245 96.77,-116.6 160.18,-260 190.21,-430.3 12.46,-70.7 18.76,-150.8 18.95,-240.5 -1.9,-177.9 -40.38,-342 -115.43,-492.6 -75.1,-150.6 -183.33,-276.6 -324.7,-378.1 -141.41,-101.6 -309.73,-169.6 -504.94,-204 -197.17,-34.7 -372.08,-29.1 -524.79,16.8 -152.76,45.9 -276.95,126.8 -372.59,242.6 -95.68,115.7 -158.52,258.8 -188.55,429.2 -15.65,88.7 -22.47,171.6 -20.39,248.6 1.86,177.8 40.9,341.6 117.09,491.5 76.2,149.8 185.44,275.5 327.79,377.3 142.3,101.7 311.1,169.7 506.35,204.2 191.43,33.7 363.59,27.2 516.5,-19.7 z m -740.51,-705.1 c -65.12,-85.3 -97.99,-192.4 -98.69,-321.4 -1.2,-37.7 1.89,-77.3 9.23,-118.9 18.54,-105.2 62.93,-182.3 133.18,-231.6 70.25,-49.3 164.12,-63.5 281.66,-42.8 117.51,20.7 209.22,74.2 275.11,160.6 65.86,86.3 98.52,192.1 98,317.1 0.84,39.4 -2.37,80 -9.72,121.7 -18.85,106.9 -63.32,184.5 -133.42,232.9 -70.09,48.3 -162.98,62.3 -278.57,41.9 -119.43,-21 -211.7,-74.2 -276.78,-159.5"
        style="fill:#000000;fill-opacity:1;fill-rule:nonzero;stroke:none" id="path20"
        transform="matrix(0.13333330353101047, 0, 0, -0.13333330353101047, -661.1381835937498, 2449.860107421875)" />
    <path
        d="m 9812.84,8544.6 c 129.22,-73.5 207.46,-187.2 234.56,-341.2 7.7,-43.5 10.9,-84.1 9.8,-121.6 -1.7,-134.8 -40.7,-259.9 -117.12,-375.2 -76.41,-115.3 -184.71,-207.7 -324.89,-277.3 l 434.11,-683 -693.76,-122.3 -377.63,645.3 -3.37,-712.5 -631.21,-111.3 13.23,1986.6 938.3,165.4 c 216.08,38.1 388.74,20.5 517.98,-52.9 z m -831.94,-860 250.21,44.1 c 123.19,21.7 184.69,88.6 184.49,200.7 0.27,9.4 -0.83,21.3 -3.39,35.8 -7.02,39.9 -25.33,68.9 -54.92,87 -29.58,18.2 -69.96,22.7 -121.14,13.7 l -250.21,-44.1 -5.04,-337.2"
        style="fill:#000000;fill-opacity:1;fill-rule:nonzero;stroke:none" id="path22"
        transform="matrix(0.13333330353101047, 0, 0, -0.13333330353101047, -661.1381835937498, 2449.860107421875)" />
    <path
        d="m 11613,7321.9 -671,-118.3 -102.3,-317.9 -662.5,-116.8 749.7,2116.4 727.9,128.4 720.3,-1857.3 -665.3,-117.3 z m -151.1,441.4 -176.9,521 -187.1,-585.1 z"
        style="fill:#000000;fill-opacity:1;fill-rule:nonzero;stroke:none" id="path24"
        transform="matrix(0.13333330353101047, 0, 0, -0.13333330353101047, -661.1381835937498, 2449.860107421875)" />
    <path
        d="m 14518.9,7534.5 -631.2,-111.3 -662.5,880.9 -5.7,-998.8 -631.2,-111.3 13.3,1986.6 631.2,111.3 662.5,-897.7 5.7,1015.5 631.2,111.3 -13.3,-1986.5"
        style="fill:#000000;fill-opacity:1;fill-rule:nonzero;stroke:none" id="path26"
        transform="matrix(0.13333330353101047, 0, 0, -0.13333330353101047, -661.1381835937498, 2449.860107421875)" />
    <path
        d="m 16304.1,9763.4 c 131.5,-36.6 237.1,-100.7 316.8,-192.2 79.6,-91.5 133.8,-202 162.5,-331.4 l -665.3,-117.3 c -23.8,35 -58.4,59.2 -103.7,72.7 -45.4,13.5 -100.3,14.6 -164.7,3.2 -121.4,-21.4 -215.7,-76.8 -283,-166.2 -67.3,-89.4 -101.8,-201.5 -103.4,-336.3 -0.5,-52.4 2.4,-96.7 8.8,-133 18.9,-106.9 64.2,-181.1 136,-222.6 71.8,-41.6 173.1,-50.8 303.9,-27.7 146,25.7 264,104.4 354.2,236.2 l -503.3,-88.7 4.4,440.7 1026.4,181 -4.5,-622.9 c -164.2,-387.7 -480.5,-622.9 -948.6,-705.4 -180.1,-31.8 -340.8,-26.5 -482.1,15.9 -141.4,42.3 -256.7,116.8 -345.8,223.5 -89.2,106.6 -147.7,238.8 -175.5,396.4 -13.1,74.3 -19.2,148 -18.4,221 1.5,190.8 44.1,367.9 127.7,531.2 83.6,163.2 203.1,300.2 358.5,410.7 155.4,110.5 336.4,184 543.1,220.5 172.4,30.4 324.5,27.3 456,-9.3"
        style="fill:#000000;fill-opacity:1;fill-rule:nonzero;stroke:none" id="path28"
        transform="matrix(0.13333330353101047, 0, 0, -0.13333330353101047, -661.1381835937498, 2449.860107421875)" />
    <path
        d="m 17724.2,9590.6 -0.5,-246.7 625.6,110.3 -5.3,-469 -625.5,-110.2 -0.4,-280.4 710.8,125.4 -3.3,-496.7 -1342.1,-236.6 13.3,1986.5 1342,236.7 -3.8,-493.9 -710.8,-125.4"
        style="fill:#000000;fill-opacity:1;fill-rule:nonzero;stroke:none" id="path30"
        transform="matrix(0.13333330353101047, 0, 0, -0.13333330353101047, -661.1381835937498, 2449.860107421875)" />
    <path
        d="m 15838.5,13398.6 c 0,0 56.2,2696 -2051.1,3729.8 -26.1,274 -313.2,578.4 -313.2,578.4 0,0 -3054.2,716.6 -4829.83,-1582.6 -779.65,-1009.5 -1274.53,-3060.6 -1274.53,-3060.6 0,0 -1290.71,-661.8 -1080.7,-1266 223.88,-644.2 2402.32,-964.1 3025.24,-1103.5 1552.52,-347.3 3678.22,1329.9 5582.52,1556.7 1353.3,161.3 1403.4,749.5 941.6,1147.8"
        style="fill:#ff6e00;fill-opacity:1;fill-rule:nonzero;stroke:none" id="path32"
        transform="matrix(0.13333330353101047, 0, 0, -0.13333330353101047, -661.1381835937498, 2449.860107421875)" />
    <path
        d="m 10036.5,10465.6 c -263.48,-25.1 -518.76,-15.9 -764.49,39.1 -89.49,20 -215.62,44.6 -361.72,73 -1303.96,253.9 -2594.61,552.3 -2804.48,1156.2 -231.43,665.8 779.66,1285.2 1096.69,1460.3 104.36,406.5 574.61,2124.6 1288.26,3048.6 759,982.8 1870.14,1580.3 3213.24,1727.8 1007.3,110.5 1782.1,-67.3 1814.6,-74.9 l 56.8,-13.3 40,-42.5 c 30.3,-32 269.5,-292.5 345.1,-581.7 865.7,-455.6 1496.6,-1257.3 1828,-2324.8 205.5,-661.9 238.7,-1234.9 243.5,-1449.6 224.6,-223 311.3,-482.1 238.3,-721.2 -78.7,-257.3 -376.8,-588.5 -1350.5,-704.5 -795.7,-94.8 -1650.3,-459.7 -2476.8,-812.6 -847.2,-361.7 -1659.7,-708.7 -2406.5,-779.9 z m 1787.1,7127.1 c -29.8,-2.9 -59.6,-5.9 -89.8,-9.3 -1247.6,-140 -2235.37,-670.8 -2935.85,-1577.8 C 8053.01,15041 7563.35,13038.1 7558.5,13018 l -20.9,-86.5 -79.22,-40.6 c -3.01,-1.6 -312.21,-161.5 -589.32,-387.7 -180.3,-147.1 -471.58,-426.2 -396.61,-641.9 27.73,-79.8 176.22,-291.8 954.07,-536.5 523.12,-164.6 1121.24,-281.1 1557.96,-366.1 148.9,-29 277.53,-54 372.25,-75.2 820.27,-183.5 1846.87,254.9 2933.87,719 851.6,363.6 1732.3,739.7 2583.3,841 859.9,102.5 1002.1,357 1025.1,432.5 32.5,106.1 -37.5,246.5 -187.3,375.6 l -69.2,59.7 1.9,91.3 c 0.6,35.6 22.3,2587.7 -1942.5,3551.6 l -97.4,47.8 -10.3,108 c -12.5,130.5 -130.5,309.7 -222.5,419.8 -185.8,35.6 -796.9,134.5 -1548.1,62.9"
        style="fill:#cc2b00;fill-opacity:1;fill-rule:nonzero;stroke:none" id="path34"
        transform="matrix(0.13333330353101047, 0, 0, -0.13333330353101047, -661.1381835937498, 2449.860107421875)" />
    <path
        d="m 9730.61,14887.8 -422.18,188.8 67.88,172.4 c 9.84,25.1 248.69,620.9 872.99,1246.3 573.5,574.6 1597,1284.7 3210.5,1405 l 28.9,-387.1 c -1151.2,-85.9 -2116.9,-489.6 -2870.6,-1200.6 718.9,517.9 1780.7,1025.4 3171.4,1009.9 l -4.3,-388.1 c -2548.2,28.3 -3948.48,-1897.6 -3962.32,-1917 l -92.27,-129.6"
        style="fill:#cc2b00;fill-opacity:1;fill-rule:nonzero;stroke:none" id="path36"
        transform="matrix(0.13333330353101047, 0, 0, -0.13333330353101047, -661.1381835937498, 2449.860107421875)" />
    <path
        d="m 11555.1,12022 c -723.5,-69 -1535.2,-74.4 -2347.5,41.4 -1506.31,214.7 -1977.12,861 -1996.43,888.4 l 317.33,223.5 -158.66,-111.7 157.35,113.6 c 4,-5.4 414.33,-541.3 1735.16,-729.5 1788.25,-254.9 3564.95,98.1 4322.75,397.6 l 142.6,-361 c -449.1,-177.5 -1236.9,-373.1 -2172.6,-462.3"
        style="fill:#cc2b00;fill-opacity:1;fill-rule:nonzero;stroke:none" id="path38"
        transform="matrix(0.13333330353101047, 0, 0, -0.13333330353101047, -661.1381835937498, 2449.860107421875)" />
    <path
        d="m 15176.5,12944.9 -130.2,365.7 c 483.5,172.2 588.6,467.5 592.8,480 l 370.7,-115.2 c -6,-19.9 -154.5,-488.7 -833.3,-730.5"
        style="fill:#cc2b00;fill-opacity:1;fill-rule:nonzero;stroke:none" id="path40"
        transform="matrix(0.13333330353101047, 0, 0, -0.13333330353101047, -661.1381835937498, 2449.860107421875)" />
    <g id="g42"
        transform="matrix(1.3333330353101047, 0, 0, -1.3333330353101047, -661.1381835937498, 2449.860107421875)">
        <path
            d="M 611.882 563.98 L 644.812 469.14 L 684.381 476.12 L 717.079 582.53 L 684.541 576.79 L 664.67 504.06 L 644.42 569.72 L 611.882 563.98 Z M 791.644 495.03 L 823.907 500.72 L 788.22 595.08 L 752.924 588.85 L 717.331 481.93 L 749.455 487.59 L 754.299 503.66 L 786.837 509.39 L 791.644 495.03 Z M 761.683 528.7 L 770.543 558.27 L 779.33 531.81 L 761.683 528.7 Z M 787.504 637.03 L 751.711 615.08 L 751.725 594.04 L 787.492 613.71 L 787.504 637.03 Z M 876.012 611.55 C 866.175 609.82 857.63 606.15 850.371 600.56 C 843.112 594.97 837.527 587.94 833.616 579.48 C 829.706 571.02 827.775 561.82 827.822 551.88 C 827.81 548.18 828.13 544.49 828.778 540.81 C 830.139 533.09 832.92 526.59 837.12 521.32 C 841.321 516.04 846.737 512.33 853.371 510.18 C 860.005 508.03 867.595 507.71 876.144 509.22 C 888.828 511.46 899.356 516.91 907.73 525.59 C 916.102 534.27 921.329 544.81 923.407 557.22 L 891.145 551.53 C 889.689 547.95 887.604 545 884.887 542.68 C 882.17 540.35 879.064 538.88 875.572 538.26 C 871.25 537.5 867.677 538.29 864.847 540.63 C 862.017 542.98 860.18 546.54 859.337 551.32 C 858.965 553.43 858.8 555.44 858.844 557.35 C 858.887 564.08 860.383 569.7 863.335 574.2 C 866.284 578.7 870.332 581.41 875.481 582.31 C 878.973 582.93 882.095 582.56 884.848 581.19 C 887.598 579.83 889.673 577.61 891.067 574.54 L 923.329 580.23 C 922.058 587.97 919.305 594.45 915.068 599.67 C 910.828 604.9 905.374 608.55 898.703 610.65 C 892.031 612.74 884.467 613.04 876.012 611.55 Z M 1025.78 586.92 C 1025.72 590.51 1025.42 593.83 1024.883 596.86 C 1023.538 604.49 1020.65 610.92 1016.221 616.16 C 1011.79 621.39 1006.07 625.08 999.061 627.21 C 992.052 629.33 984.043 629.6 975.036 628.02 L 934.363 620.84 L 934.479 520.22 L 975.151 527.39 C 985.354 529.19 994.284 532.96 1001.94 538.72 C 1009.597 544.48 1015.479 551.56 1019.591 559.96 C 1023.7 568.36 1025.76 577.35 1025.78 586.92 Z M 972.268 555.03 L 964.961 553.74 L 965 598.67 L 972.307 599.96 C 978.281 601.01 983.22 600.41 987.124 598.16 C 991.026 595.91 993.449 592.12 994.389 586.79 C 994.583 585.69 994.706 583.91 994.761 581.45 C 994.797 574.26 992.781 568.36 988.712 563.75 C 984.642 559.15 979.162 556.24 972.268 555.03 Z M 1036.39 638.83 L 1036.44 582.12 C 1036.41 578.51 1036.7 574.96 1037.32 571.47 C 1039.2 560.81 1043.84 553.19 1051.23 548.62 C 1058.62 544.05 1067.79 542.73 1078.73 544.66 C 1087 546.11 1094.47 549.14 1101.15 553.73 C 1107.83 558.32 1113.12 564.34 1117.01 571.81 C 1120.91 579.27 1122.87 587.79 1122.88 597.36 L 1122.84 654.08 L 1092.37 648.7 L 1092.41 591.99 C 1092.38 587.34 1091.31 583.48 1089.2 580.41 C 1087.08 577.33 1083.82 575.41 1079.41 574.63 C 1075.83 574 1073.05 574.43 1071.08 575.93 C 1069.11 577.43 1067.85 579.75 1067.3 582.87 C 1067.02 584.43 1066.89 585.97 1066.91 587.49 L 1066.86 644.21 L 1036.39 638.83 Z M 1231.75 673.28 L 1195.22 666.84 L 1166.64 619.3 L 1166.54 661.78 L 1135.93 656.39 L 1136.05 555.76 L 1166.66 561.15 L 1166.64 604.79 L 1195.06 566.16 L 1231.87 572.65 L 1195.72 618.03 L 1231.75 673.28 Z M 1307.56 586 L 1339.82 591.69 L 1304.14 686.05 L 1268.84 679.82 L 1233.25 572.9 L 1265.37 578.56 L 1270.22 594.63 L 1302.75 600.36 L 1307.56 586 Z M 1277.6 619.67 L 1286.46 649.24 L 1295.25 622.78 L 1277.6 619.67 Z"
            style="fill:#ff6e00;fill-opacity:1;fill-rule:nonzero;stroke:none" id="path48" />
    </g>
</svg>