<?xml version="1.0" encoding="utf-8"?>
<svg viewBox="268.6132 20.762 1363.1833 1902.0843" xmlns="http://www.w3.org/2000/svg">
    <g id="g-1"
        transform="matrix(1.3333330154418945, 0, 0, -1.3333330154418945, -383.12744140624955, 2478.06689453125)">
        <g id="g-2" transform="scale(0.1)">
            <path
                d="m 7643.58,11193.3 -3.79,-493.9 -534.54,-94.3 -9.45,-1492.6 -631.21,-111.3 9.45,1492.6 -528.85,-93.2 3.79,493.9 1694.6,298.8"
                style="fill:#000000;fill-opacity:1;fill-rule:nonzero;stroke:none" id="path-1" />
            <path
                d="m 8512.67,10853.3 -0.48,-246.7 625.53,110.3 -5.26,-469 -625.52,-110.3 -0.41,-280.3 710.82,125.3 -3.32,-496.6 -1342.02,-236.7 13.24,1986.6 1342.03,236.6 -3.79,-493.9 -710.82,-125.3"
                style="fill:#000000;fill-opacity:1;fill-rule:nonzero;stroke:none" id="path-2" />
            <path
                d="m 10817.5,10068.6 -671,-118.3 -102.2,-317.9 -662.51,-116.9 749.61,2116.5 727.9,128.3 720.4,-1857.2 -665.4,-117.3 z m -151.1,441.4 -176.8,520.9 -187.1,-585.1 z"
                style="fill:#000000;fill-opacity:1;fill-rule:nonzero;stroke:none" id="path-3" />
            <path
                d="m 14225.8,12353.9 -13.3,-1986.5 -628.3,-110.9 6.6,993.3 -316.6,-1047.9 -540.2,-95.3 -302.8,936 -7.1,-990.6 -631.2,-111.3 13.2,1986.6 773.4,136.3 436.4,-1111.3 439.3,1265.7 770.6,135.9"
                style="fill:#000000;fill-opacity:1;fill-rule:nonzero;stroke:none" id="path-4" />
            <path
                d="m 7763.34,8709.3 c 166.78,-94.8 267.76,-241.6 302.81,-440.4 9.89,-56.1 14.04,-108.5 12.53,-156.9 -2.12,-174.1 -52.47,-335.5 -151.11,-484.3 -98.63,-148.9 -238.41,-268.1 -419.36,-357.9 l 560.33,-881.5 -895.46,-157.9 -487.42,832.8 -4.35,-919.5 -814.72,-143.7 17.09,2564.1 1211.07,213.6 c 278.92,49.2 501.77,26.3 668.59,-68.4 z m -1073.82,-1110 322.96,57 c 159.01,28 238.39,114.3 238.12,259 0.35,12.1 -1.06,27.5 -4.37,46.2 -9.07,51.5 -32.69,88.9 -70.89,112.3 -38.18,23.4 -90.3,29.3 -156.36,17.7 l -322.96,-57 -6.5,-435.2"
                style="fill:#000000;fill-opacity:1;fill-rule:nonzero;stroke:none" id="path-5" />
            <path
                d="m 9244.1,8520 -0.61,-318.4 807.41,142.3 -6.8,-605.3 -807.39,-142.3 -0.53,-361.9 917.52,161.8 -4.3,-641 -1732.22,-305.5 17.09,2564.2 1732.23,305.4 -4.9,-637.5 -917.5,-161.8"
                style="fill:#000000;fill-opacity:1;fill-rule:nonzero;stroke:none" id="path-6" />
            <path
                d="m 12819.9,7855.5 c -111,-214.9 -268.8,-396.5 -473.5,-544.7 -204.7,-148.2 -442.8,-246.3 -714.4,-294.2 l -1082.6,-190.9 17.1,2564.2 1082.6,190.9 c 239.8,42.2 452.6,36.9 638.5,-15.9 185.9,-52.8 337.2,-145.5 454,-278.1 116.6,-132.6 192.2,-295.9 226.4,-490 13.6,-77.2 20.9,-161.5 21.9,-253 -2.4,-244 -59.1,-473.4 -170,-688.3 z m -820.1,90.5 c 109.1,118.1 163.9,268.9 164.3,452.2 -0.9,62.5 -3.8,107.9 -8.8,135.9 -23.9,135.7 -87.6,231.8 -190.8,288.3 -103.4,56.5 -234.5,70.8 -393.5,42.8 l -194.6,-34.3 -10,-1144.9 194.5,34.3 c 183.5,32.4 329.8,107.6 438.9,225.7"
                style="fill:#000000;fill-opacity:1;fill-rule:nonzero;stroke:none" id="path-7" />
            <path
                d="m 14654.8,13821.7 c 0,0 56.3,2696 -2051.1,3729.9 -26.1,273.9 -313.1,578.3 -313.1,578.3 0,0 -3054.27,716.6 -4829.89,-1582.6 -779.64,-1009.5 -1274.53,-3060.6 -1274.53,-3060.6 0,0 -1290.71,-661.8 -1080.7,-1266 223.89,-644.2 2402.32,-964.1 3025.24,-1103.5 1552.54,-347.3 3678.18,1329.9 5582.48,1556.7 1353.3,161.3 1403.4,749.5 941.6,1147.8"
                style="fill:#ff404d;fill-opacity:1;fill-rule:nonzero;stroke:none" id="path-8" />
            <path
                d="m 8852.83,10888.7 c -263.47,-25.1 -518.75,-15.9 -764.48,39.1 -89.48,20 -215.62,44.6 -361.72,73 -1303.96,253.9 -2594.61,552.3 -2804.48,1156.2 -231.43,665.8 779.66,1285.2 1096.69,1460.3 104.36,406.5 574.61,2124.6 1288.27,3048.6 758.99,982.8 1870.1,1580.3 3213.19,1727.8 1007.4,110.5 1782.1,-67.3 1814.6,-74.9 l 56.9,-13.3 40,-42.5 c 30.2,-32 269.4,-292.5 345,-581.7 865.7,-455.6 1496.7,-1257.3 1828.1,-2324.8 205.4,-661.9 238.6,-1234.9 243.4,-1449.6 224.6,-223 311.4,-482.1 238.3,-721.2 -78.6,-257.4 -376.7,-588.5 -1350.5,-704.5 -795.7,-94.8 -1650.3,-459.7 -2476.8,-812.6 -847.2,-361.7 -1659.69,-708.7 -2406.47,-779.9 z m 1787.07,7127.1 c -29.8,-2.9 -59.6,-6 -89.8,-9.3 -1247.59,-140 -2235.33,-670.8 -2935.81,-1577.8 -744.94,-964.6 -1234.6,-2967.5 -1239.45,-2987.6 l -20.9,-86.5 -79.22,-40.7 c -3.01,-1.5 -312.21,-161.4 -589.32,-387.6 -180.3,-147.1 -471.58,-426.2 -396.6,-641.9 27.72,-79.8 176.22,-291.8 954.06,-536.5 523.12,-164.6 1121.24,-281.1 1557.96,-366.1 148.9,-29 277.53,-54 372.25,-75.2 820.27,-183.5 1846.83,254.9 2933.83,719 851.7,363.6 1732.3,739.7 2583.4,841 859.9,102.5 1002,357 1025.1,432.5 32.4,106.1 -37.6,246.5 -187.3,375.6 l -69.2,59.7 1.9,91.3 c 0.6,35.6 22.2,2587.7 -1942.5,3551.6 l -97.5,47.8 -10.3,108 c -12.4,130.5 -130.4,309.7 -222.5,419.7 -185.8,35.7 -796.8,134.6 -1548.1,63"
                style="fill:#960036;fill-opacity:1;fill-rule:nonzero;stroke:none" id="path-9" />
            <path
                d="m 8546.95,15310.9 -422.18,188.8 67.88,172.4 c 9.84,25.1 248.69,620.8 873.03,1246.3 573.47,574.6 1597.02,1284.7 3210.52,1405 l 28.8,-387.1 c -1151.2,-85.9 -2116.9,-489.6 -2870.52,-1200.7 718.82,518 1780.62,1025.5 3171.42,1010 l -4.3,-388.1 c -2548.3,28.3 -3948.54,-1897.6 -3962.38,-1917 l -92.27,-129.6"
                style="fill:#960036;fill-opacity:1;fill-rule:nonzero;stroke:none" id="path-10" />
            <path
                d="m 10371.4,12445.1 c -723.44,-69 -1535.17,-74.4 -2347.46,41.4 -1506.31,214.7 -1977.12,861 -1996.42,888.4 l 317.33,223.5 -158.67,-111.7 157.35,113.6 c 4,-5.4 414.34,-541.3 1735.17,-729.5 1788.23,-254.9 3564.9,98.1 4322.7,397.6 l 142.7,-361 c -449.1,-177.5 -1237,-373.1 -2172.7,-462.3"
                style="fill:#960036;fill-opacity:1;fill-rule:nonzero;stroke:none" id="path-11" />
            <path
                d="m 13992.9,13368 -130.3,365.7 c 483.5,172.2 588.6,467.5 592.9,479.9 l 370.6,-115.1 c -6,-19.9 -154.5,-488.7 -833.2,-730.5"
                style="fill:#960036;fill-opacity:1;fill-rule:nonzero;stroke:none" id="path-12" />
            <g id="g36" transform="scale(10)">
                <text transform="matrix(0.984808,0.173648,0.173648,-0.984808,595.526,445.96)"
                    style="font-style: italic; font-variant: normal; font-weight: 900; font-size: 140px; font-family: Poppins; writing-mode: lr-tb; fill: rgb(255, 64, 77); fill-opacity: 1; fill-rule: nonzero; stroke: none; white-space: pre;"
                    id="text40"></text>
            </g>
            <path
                d="m 5868.62,5450.8 329.3,-948.4 395.69,69.8 326.98,1064.1 -325.38,-57.4 -198.71,-727.3 -202.5,656.6 z m 1797.62,-689.5 322.63,56.9 -356.87,943.6 -352.96,-62.3 -355.93,-1069.2 321.24,56.6 48.44,160.7 325.38,57.3 z m -299.61,336.7 88.6,295.7 87.87,-264.6 z m 258.21,1083.3 -357.93,-219.5 0.14,-210.4 357.67,196.7 z m 885.08,-254.8 c -98.37,-17.3 -183.82,-54 -256.41,-109.9 -72.59,-55.9 -128.44,-126.2 -167.55,-210.8 -39.1,-84.6 -58.41,-176.6 -57.94,-276 -0.12,-37 3.08,-73.9 9.56,-110.7 13.61,-77.2 41.42,-142.2 83.42,-194.9 42.01,-52.8 96.17,-89.9 162.51,-111.4 66.34,-21.5 142.24,-24.7 227.73,-9.6 126.84,22.4 232.12,76.9 315.86,163.7 83.72,86.8 135.99,192.2 156.77,316.3 l -322.62,-56.9 c -14.56,-35.8 -35.41,-65.3 -62.58,-88.5 -27.17,-23.3 -58.23,-38 -93.15,-44.2 -43.22,-7.6 -78.95,0.3 -107.25,23.7 -28.3,23.5 -46.67,59.1 -55.1,106.9 -3.72,21.1 -5.37,41.2 -4.93,60.3 0.43,67.3 15.39,123.5 44.91,168.5 29.49,45 69.97,72.1 121.46,81.1 34.92,6.2 66.14,2.5 93.67,-11.2 27.5,-13.6 48.25,-35.8 62.19,-66.5 l 322.62,56.9 c -12.71,77.4 -40.24,142.2 -82.61,194.4 -42.4,52.3 -96.94,88.8 -163.65,109.8 -66.72,20.9 -142.36,23.9 -226.91,9 z m 1497.68,-246.3 c -0.6,35.9 -3.6,69.1 -8.97,99.4 -13.45,76.3 -42.33,140.6 -86.62,193 -44.31,52.3 -101.51,89.2 -171.6,110.5 -70.09,21.2 -150.18,23.9 -240.25,8.1 l -406.73,-71.8 1.16,-1006.2 406.72,71.7 c 102.03,18 191.33,55.7 267.89,113.3 76.57,57.6 135.39,128.4 176.51,212.4 41.09,84 61.69,173.9 61.89,269.6 z m -535.12,-318.9 -73.07,-12.9 0.39,449.3 73.07,12.9 c 59.74,10.5 109.13,4.5 148.17,-18 39.02,-22.5 63.25,-60.4 72.65,-113.7 1.94,-11 3.17,-28.8 3.72,-53.4 0.36,-71.9 -19.8,-130.9 -60.49,-177 -40.7,-46 -95.5,-75.1 -164.44,-87.2 z m 641.22,838 0.5,-567.1 c -0.3,-36.1 2.6,-71.6 8.8,-106.5 18.8,-106.6 65.2,-182.8 139.1,-228.5 73.9,-45.7 165.6,-58.9 275,-39.6 82.7,14.5 157.4,44.8 224.2,90.7 66.8,45.9 119.7,106.1 158.6,180.8 39,74.6 58.6,159.8 58.7,255.5 l -0.4,567.2 -304.7,-53.8 0.4,-567.1 c -0.3,-46.5 -11,-85.1 -32.1,-115.8 -21.2,-30.8 -53.8,-50 -97.9,-57.8 -35.8,-6.3 -63.6,-2 -83.3,13 -19.7,15 -32.3,38.2 -37.8,69.4 -2.8,15.6 -4.1,31 -3.9,46.2 l -0.5,567.2 z m 1953.6,344.5 -365.3,-64.4 -285.8,-475.4 -1,424.8 -306.1,-53.9 1.2,-1006.3 306.1,53.9 -0.2,436.4 284.2,-386.3 368.1,64.9 -361.5,453.8 z m 758.1,-872.8 322.6,56.9 -356.8,943.6 -353,-62.3 -355.9,-1069.2 321.2,56.6 48.5,160.7 325.3,57.3 z m -299.6,336.7 88.6,295.7 87.9,-264.6 z"
                style="fill:#ff404d;fill-opacity:1;fill-rule:nonzero;stroke:none" id="path42" />
        </g>
    </g>
</svg>